<?xml version="1.0" encoding="UTF-8" standalone="no"?>
<!-- Created with Inkscape (http://www.inkscape.org/) -->

<svg
   xmlns:dc="http://purl.org/dc/elements/1.1/"
   xmlns:cc="http://creativecommons.org/ns#"
   xmlns:rdf="http://www.w3.org/1999/02/22-rdf-syntax-ns#"
   xmlns:svg="http://www.w3.org/2000/svg"
   xmlns="http://www.w3.org/2000/svg"
   xmlns:sodipodi="http://sodipodi.sourceforge.net/DTD/sodipodi-0.dtd"
   xmlns:inkscape="http://www.inkscape.org/namespaces/inkscape"
   width="210mm"
   height="297mm"
   viewBox="0 0 210 297"
   version="1.1"
   id="svg8"
   inkscape:version="0.92.3 (2405546, 2018-03-11)"
   sodipodi:docname="dibujo.svg">
  <defs
     id="defs2" />
  <sodipodi:namedview
     id="base"
     pagecolor="#ffffff"
     bordercolor="#666666"
     borderopacity="1.0"
     inkscape:pageopacity="0.0"
     inkscape:pageshadow="2"
     inkscape:zoom="1.4"
     inkscape:cx="428.60367"
     inkscape:cy="364.06604"
     inkscape:document-units="mm"
     inkscape:current-layer="layer1"
     showgrid="false"
     inkscape:measure-start="0,0"
     inkscape:measure-end="0,0"
     inkscape:window-width="1920"
     inkscape:window-height="1017"
     inkscape:window-x="-8"
     inkscape:window-y="-8"
     inkscape:window-maximized="1" />
  <metadata
     id="metadata5">
    <rdf:RDF>
      <cc:Work
         rdf:about="">
        <dc:format>image/svg+xml</dc:format>
        <dc:type
           rdf:resource="http://purl.org/dc/dcmitype/StillImage" />
        <dc:title></dc:title>
      </cc:Work>
    </rdf:RDF>
  </metadata>
  <g
     inkscape:label="Capa 1"
     inkscape:groupmode="layer"
     id="layer1">
    <path
       id="path222"
       transform="scale(0.26458333)"
       style="fill:none;stroke:#000000;stroke-width:0.99999994px;stroke-linecap:butt;stroke-linejoin:miter;stroke-opacity:1"
       d="M 267.85742,508.23438 467.14258,553.94922 369.28516,826.0918 278.18359,559.14453 c -12.98694,17.12167 -25.43706,34.64436 -37.57226,52.37891 -7.07214,10.33534 -14.22292,20.61896 -21.04492,31.12109 -1.2188,1.87627 -2.41488,3.76743 -3.61719,5.6543 l 105.85156,279.14844 c 5.71064,-1.97639 11.57589,-3.529 17.45313,-4.92774 5.34674,-1.27249 10.8553,-1.72491 16.2832,-2.58789 6.17241,-0.13739 10.37182,-0.40478 14.52734,-0.34375 4.15553,0.061 8.26691,0.45019 14.26758,1.62891 4.75125,0.93331 9.39185,2.38209 14.01172,3.83203 3.94081,1.23682 7.83466,2.63133 11.67773,4.14648 L 581.42773,543.94922 Z m -87.14258,47.14257 32.08008,84.60157 c 0.28659,-0.44335 0.56592,-0.89129 0.85352,-1.33399 6.83918,-10.52783 14.00764,-20.83866 21.09765,-31.19922 11.90213,-17.39247 24.10352,-34.58477 36.81641,-51.39453 z m 184.36328,371.3711 c -2.72956,0.0817 -5.68259,0.22483 -9.36523,0.32422 -13.37171,2.18182 -19.39302,2.64131 -31.40039,6.99804 l 17.83008,47.02149 22.7168,-0.19336 c 0.32613,-17.67116 0.0518,-35.3487 0.14062,-53.02149 0.002,-0.40163 0.0329,-0.77291 0.0781,-1.1289 z m 6.99805,0.0234 c 0.04,0.34954 0.0684,0.71217 0.0664,1.10547 -0.0879,17.65316 0.18487,35.30965 -0.13672,52.96094 l 15.0957,-0.12891 20.01758,-44.99023 c -3.67692,-1.44658 -7.40636,-2.76686 -11.17773,-3.94336 -4.44802,-1.38762 -8.91434,-2.77955 -13.48829,-3.66797 -4.11417,-0.79909 -7.34388,-1.1817 -10.37695,-1.33594 z" />
    <path
       id="path224"
       transform="scale(0.26458333)"
       style="fill:#ff0000;fill-opacity:0.74153436;stroke-width:0.71428573"
       d="m 290.04297,511.9082 c -0.97655,0.10366 38.52523,9.42356 87.7832,20.71094 49.25798,11.28738 89.71749,20.67842 89.90821,20.86914 0.12255,0.12263 -8.0767,23.25209 -19.32227,54.74219 4.44717,1.22495 8.8833,2.48815 13.27734,3.88867 20.16175,6.42609 56.87644,19.73907 76.24805,27.20508 23.01649,-51.89478 41.87874,-94.46696 41.82031,-94.52539 -0.45034,-0.45034 -287.8975,-33.08353 -289.71484,-32.89063 z m -103.93555,44.4336 c -2.41497,10e-4 -3.76643,0.0151 -3.79687,0.043 -0.057,0.0521 13.8645,36.92337 31.1289,82.58789 0.0706,-0.10879 0.13834,-0.21938 0.20899,-0.32813 6.83918,-10.52783 14.00764,-20.83866 21.09765,-31.19922 11.66859,-17.0512 23.62271,-33.9116 36.06641,-50.40625 l -41.24414,-0.40039 c -19.40205,-0.18884 -36.21602,-0.29989 -43.46094,-0.29687 z m 91.46875,3.60156 c -12.76819,16.86751 -25.01855,34.12161 -36.96484,51.58008 -7.07214,10.33534 -14.22292,20.61896 -21.04492,31.12109 -1.00335,1.5446 -1.9866,3.10235 -2.97852,4.6543 7.28399,19.26283 13.57864,35.92191 21.91211,57.9414 0.0737,-0.0495 0.1351,-0.091 0.20898,-0.14062 19.64069,-13.32953 28.38017,-19.4901 48.16602,-32.04883 7.08215,-4.49526 14.28519,-8.79763 21.41992,-13.20898 0.92737,-0.57338 1.84904,-1.15624 2.77344,-1.73438 z M 446,614.97852 c -7.16551,20.0489 -15.08873,42.17564 -23.5918,65.8496 11.05026,2.23072 22.09808,4.4702 33.13672,6.76563 13.54632,2.81684 27.14108,5.4081 40.63086,8.48437 5.03074,1.14726 10.03838,2.31975 15.0332,3.50586 9.05585,-20.40383 15.73137,-35.46891 23.82813,-53.72265 -19.13445,-7.36412 -55.58159,-20.58535 -75.29688,-26.8711 -4.54603,-1.44941 -9.1384,-2.74757 -13.74023,-4.01171 z m -132.5625,50.07226 c -0.45907,0.28589 -0.91505,0.57689 -1.375,0.86133 -7.14019,4.41566 -14.34949,8.71979 -21.4375,13.21875 -19.60419,12.44334 -28.44251,18.66957 -47.9043,31.87891 -0.57387,0.38545 -1.06308,0.70969 -1.62695,1.08789 7.58456,20.03872 14.61728,38.57405 22.42383,59.18554 0.18128,-0.14234 0.3637,-0.28336 0.54492,-0.42578 20.58431,-16.17709 35.56348,-27.69491 56.36914,-42.85547 3.86061,-2.81313 7.7567,-5.57692 11.66016,-8.33007 -3.12363,-9.13635 -6.0549,-17.69462 -9.36524,-27.39649 z m 106.52734,22.57031 c -6.14654,17.10616 -12.37119,34.42168 -18.19336,50.57422 0.76193,0.37126 1.52728,0.73586 2.28711,1.11133 7.4112,3.66225 14.78768,7.39294 22.18164,11.08984 9.21793,4.51971 18.44061,9.03031 27.6543,13.5586 7.86553,3.86571 15.7599,7.67457 23.62109,11.54883 11.04515,-24.86701 20.10594,-45.30904 30.74805,-69.28516 -4.50763,-1.06715 -9.02325,-2.11875 -13.54687,-3.15039 -13.48506,-3.07536 -27.07755,-5.66449 -40.61914,-8.48047 -11.37069,-2.36456 -22.75061,-4.6698 -34.13282,-6.9668 z M 334.5,726.71484 c -3.3246,2.34978 -6.64148,4.71189 -9.93164,7.10938 -20.69012,15.07669 -35.66443,26.59421 -56.13086,42.67969 -0.75464,0.5931 -1.51193,1.18345 -2.26758,1.77539 8.60339,22.71358 15.39578,40.61354 23.51563,62.03711 20.55502,-20.54635 41.67251,-40.53018 63.19336,-60.06055 C 347.38654,764.29177 341.80952,748.08322 334.5,726.71484 Z m 64.83398,18.23633 c -5.91532,16.40227 -10.46774,28.95215 -15.09375,41.71289 0.78887,0.53516 -0.0833,0.003 16.53516,11.30664 29.30971,19.93644 15.74675,10.26565 48.14649,33.13868 0.98225,0.69342 1.96884,1.38144 2.95312,2.07226 7.99021,-17.97853 14.34258,-32.24814 22.73633,-51.14453 -7.94071,-3.91529 -15.91524,-7.76263 -23.86133,-11.66797 -16.7059,-8.21059 -20.6459,-10.1395 -25.9375,-12.73437 4.16906,2.02832 3.94655,1.87675 -23.87109,-11.90235 -0.53392,-0.26447 -1.07259,-0.51879 -1.60743,-0.78125 z m -43.93164,42.65625 c -21.44116,19.51691 -42.48083,39.48189 -62.94531,60.02149 4.60445,12.14735 7.74943,20.42415 12.03906,31.73632 21.91448,1.84277 43.55274,4.76562 65.68946,7.83789 12.46044,1.72937 24.90215,3.61443 37.30078,5.74219 0.29153,0.05 9.04884,1.81118 16.35351,3.27539 8.26188,-18.5748 15.5016,-34.84052 25.07813,-56.38672 -1.36376,-0.95565 -2.72959,-1.9088 -4.08985,-2.86914 -32.30326,-22.80604 -18.79354,-13.17447 -48.10351,-33.11132 -11.45638,-7.79273 -14.42088,-9.8397 -14.99219,-10.25586 -7.09009,19.53115 -12.32822,33.85547 -12.45312,33.85546 -0.1136,0 -5.88698,-16.64848 -13.87696,-39.8457 z m 26.33008,5.99024 c 0.003,-0.009 0.004,-0.0141 0.008,-0.0234 -0.1828,-0.11675 -0.2261,-0.13587 -0.008,0.0234 z m -74.42578,93.17578 c 5.93904,15.65984 10.38412,27.36069 15.32813,40.38476 5.44686,-1.84083 11.02802,-3.30803 16.61914,-4.63867 5.34674,-1.27249 10.8553,-1.72491 16.2832,-2.58789 6.17241,-0.13739 10.37182,-0.40478 14.52734,-0.34375 4.15553,0.061 8.26691,0.45019 14.26758,1.62891 4.75125,0.93331 9.39185,2.38209 14.01172,3.83203 3.69121,1.15848 7.34127,2.45548 10.94727,3.85937 3.95464,-8.88436 7.0665,-15.86639 11.60742,-26.07422 -4.92455,-1.02846 -9.8546,-2.03211 -14.8125,-2.88281 -12.29371,-2.10939 -24.63115,-3.97454 -36.98633,-5.6875 -20.85129,-2.89092 -41.21134,-5.65193 -61.79297,-7.49023 z m 57.77148,39.97461 c -2.72956,0.0817 -5.68259,0.22483 -9.36523,0.32422 -13.07992,2.13421 -19.08025,2.59091 -30.57422,6.6875 9.78948,25.78177 17.43154,45.87399 17.57422,46.11132 0.18348,0.30519 11.19729,0.37331 22.1582,0.28711 0.30509,-17.42459 0.0413,-34.85524 0.12891,-52.28125 0.002,-0.40163 0.0329,-0.77291 0.0781,-1.1289 z m 6.99805,0.0234 c 0.04,0.34954 0.0684,0.71217 0.0664,1.10547 -0.0867,17.39918 0.17517,34.80172 -0.125,52.19922 7.95947,-0.11505 14.49381,-0.30694 14.67187,-0.54297 0.12468,-0.16526 8.78008,-19.57941 19.69727,-44.09961 -3.43995,-1.33429 -6.92394,-2.55969 -10.44531,-3.6582 -4.44802,-1.38762 -8.91434,-2.77955 -13.48829,-3.66797 -4.11417,-0.79909 -7.34388,-1.1817 -10.37695,-1.33594 z" />
  </g>
</svg>
